# xmcd
#
# Track frame offsets:
#	150
#	10152
#	16990
#	24434
#	36284
#	49581
#	62255
#	72794
#	83546
#	95352
#	104427
#	118378
#	129372
#	139302
#	150276
#	161699
#	170762
#	182481
#	196394
#	207241
#
# Disc length: 2924 seconds
#
# Revision: 0
# Processed by: cddbd v1.5.2PL0 Copyright (c) Steve Scherf et al.
# Submitted via: EasyCDDAExtractor 12.0.7.1
#
DISCID=010b6a14
DTITLE=Herb Hardesty and His Band - The Domino Effect
DYEAR=2012
DGENRE=Rhythm and Blues
TTITLE0=Sassy
TTITLE1=Goldie
TTITLE2=Rumba Rockin' With Coleman
TTITLE3=Soft Lights
TTITLE4=Feelin' Good
TTITLE5=Jammin'
TTITLE6=Coach Train
TTITLE7=Herb In The Doghouse
TTITLE8=Tasty
TTITLE9=Bouncing Ball
TTITLE10=Herb's Mood
TTITLE11=Nat
TTITLE12=Beatin' and Blowin'
TTITLE13=69 Mother's Place
TTITLE14=Perdido Street
TTITLE15=Adam and Eva
TTITLE16=It Must Be Wonderful
TTITLE17=The Chicken Twist
TTITLE18=Why Did We Have To Part
TTITLE19=Just A Little Bit Of Everything
EXTD=
EXTT0=
EXTT1=
EXTT2=
EXTT3=
EXTT4=
EXTT5=
EXTT6=
EXTT7=
EXTT8=
EXTT9=
EXTT10=
EXTT11=
EXTT12=
EXTT13=
EXTT14=
EXTT15=
EXTT16=
EXTT17=
EXTT18=
EXTT19=
PLAYORDER=
